<mxfile host="app.diagrams.net" modified="2024-06-04T13:15:54.120Z" agent="Mozilla/5.0 (Windows NT 10.0; Win64; x64; rv:99.0) Gecko/20100101 Firefox/99.0" etag="-6xw16zzrwQl3Bow8qm5" version="24.4.13" type="device">
  <diagram name="Page-1" id="sSkLaSDum9N25gmNXzMN">
    <mxGraphModel dx="1554" dy="734" grid="1" gridSize="10" guides="1" tooltips="1" connect="1" arrows="1" fold="1" page="1" pageScale="1" pageWidth="1920" pageHeight="1200" math="0" shadow="0">
      <root>
        <mxCell id="0" />
        <mxCell id="1" parent="0" />
        <mxCell id="lG9ZCC8ehY0QoWntL6ON-1" value="S3 bucket containing documents to load" style="sketch=0;points=[[0,0,0],[0.25,0,0],[0.5,0,0],[0.75,0,0],[1,0,0],[0,1,0],[0.25,1,0],[0.5,1,0],[0.75,1,0],[1,1,0],[0,0.25,0],[0,0.5,0],[0,0.75,0],[1,0.25,0],[1,0.5,0],[1,0.75,0]];outlineConnect=0;fontColor=#232F3E;fillColor=#7AA116;strokeColor=#ffffff;dashed=0;verticalLabelPosition=bottom;verticalAlign=top;align=center;html=1;fontSize=12;fontStyle=0;aspect=fixed;shape=mxgraph.aws4.resourceIcon;resIcon=mxgraph.aws4.s3;" vertex="1" parent="1">
          <mxGeometry x="130" y="220" width="78" height="78" as="geometry" />
        </mxCell>
        <mxCell id="lG9ZCC8ehY0QoWntL6ON-8" style="edgeStyle=orthogonalEdgeStyle;rounded=0;orthogonalLoop=1;jettySize=auto;html=1;" edge="1" parent="1" source="lG9ZCC8ehY0QoWntL6ON-2" target="lG9ZCC8ehY0QoWntL6ON-4">
          <mxGeometry relative="1" as="geometry" />
        </mxCell>
        <mxCell id="lG9ZCC8ehY0QoWntL6ON-9" value="Document and ontology name" style="edgeLabel;html=1;align=center;verticalAlign=middle;resizable=0;points=[];" vertex="1" connectable="0" parent="lG9ZCC8ehY0QoWntL6ON-8">
          <mxGeometry x="-0.1518" y="1" relative="1" as="geometry">
            <mxPoint as="offset" />
          </mxGeometry>
        </mxCell>
        <mxCell id="lG9ZCC8ehY0QoWntL6ON-2" value="&lt;div&gt;Initial lambda function to gather&lt;/div&gt;&lt;div&gt;document/ontology metadata&lt;/div&gt;" style="sketch=0;points=[[0,0,0],[0.25,0,0],[0.5,0,0],[0.75,0,0],[1,0,0],[0,1,0],[0.25,1,0],[0.5,1,0],[0.75,1,0],[1,1,0],[0,0.25,0],[0,0.5,0],[0,0.75,0],[1,0.25,0],[1,0.5,0],[1,0.75,0]];outlineConnect=0;fontColor=#232F3E;fillColor=#ED7100;strokeColor=#ffffff;dashed=0;verticalLabelPosition=bottom;verticalAlign=top;align=center;html=1;fontSize=12;fontStyle=0;aspect=fixed;shape=mxgraph.aws4.resourceIcon;resIcon=mxgraph.aws4.lambda;" vertex="1" parent="1">
          <mxGeometry x="131" y="390" width="78" height="78" as="geometry" />
        </mxCell>
        <mxCell id="lG9ZCC8ehY0QoWntL6ON-3" style="edgeStyle=orthogonalEdgeStyle;rounded=0;orthogonalLoop=1;jettySize=auto;html=1;entryX=0.5;entryY=0;entryDx=0;entryDy=0;entryPerimeter=0;" edge="1" parent="1" target="lG9ZCC8ehY0QoWntL6ON-2">
          <mxGeometry relative="1" as="geometry">
            <mxPoint x="170" y="330" as="sourcePoint" />
          </mxGeometry>
        </mxCell>
        <mxCell id="lG9ZCC8ehY0QoWntL6ON-4" value="" style="rounded=0;whiteSpace=wrap;html=1;strokeColor=#FF8000;" vertex="1" parent="1">
          <mxGeometry x="420" y="214" width="880" height="430" as="geometry" />
        </mxCell>
        <mxCell id="lG9ZCC8ehY0QoWntL6ON-5" value="Within single lambda function" style="text;html=1;align=center;verticalAlign=middle;whiteSpace=wrap;rounded=0;" vertex="1" parent="1">
          <mxGeometry x="800" y="644" width="120" height="30" as="geometry" />
        </mxCell>
        <mxCell id="lG9ZCC8ehY0QoWntL6ON-6" value="&lt;div&gt;S3 bucket containing &lt;br&gt;&lt;/div&gt;&lt;div&gt;documents to load&lt;/div&gt;" style="sketch=0;points=[[0,0,0],[0.25,0,0],[0.5,0,0],[0.75,0,0],[1,0,0],[0,1,0],[0.25,1,0],[0.5,1,0],[0.75,1,0],[1,1,0],[0,0.25,0],[0,0.5,0],[0,0.75,0],[1,0.25,0],[1,0.5,0],[1,0.75,0]];outlineConnect=0;fontColor=#232F3E;fillColor=#7AA116;strokeColor=#ffffff;dashed=0;verticalLabelPosition=bottom;verticalAlign=top;align=center;html=1;fontSize=12;fontStyle=0;aspect=fixed;shape=mxgraph.aws4.resourceIcon;resIcon=mxgraph.aws4.s3;" vertex="1" parent="1">
          <mxGeometry x="480" y="298" width="78" height="78" as="geometry" />
        </mxCell>
        <mxCell id="lG9ZCC8ehY0QoWntL6ON-7" value="&lt;div&gt;S3 bucket containing&lt;/div&gt;&lt;div&gt;ontology&lt;br&gt;&lt;/div&gt;" style="sketch=0;points=[[0,0,0],[0.25,0,0],[0.5,0,0],[0.75,0,0],[1,0,0],[0,1,0],[0.25,1,0],[0.5,1,0],[0.75,1,0],[1,1,0],[0,0.25,0],[0,0.5,0],[0,0.75,0],[1,0.25,0],[1,0.5,0],[1,0.75,0]];outlineConnect=0;fontColor=#232F3E;fillColor=#7AA116;strokeColor=#ffffff;dashed=0;verticalLabelPosition=bottom;verticalAlign=top;align=center;html=1;fontSize=12;fontStyle=0;aspect=fixed;shape=mxgraph.aws4.resourceIcon;resIcon=mxgraph.aws4.s3;" vertex="1" parent="1">
          <mxGeometry x="610" y="298" width="78" height="78" as="geometry" />
        </mxCell>
        <mxCell id="lG9ZCC8ehY0QoWntL6ON-11" style="edgeStyle=orthogonalEdgeStyle;rounded=0;orthogonalLoop=1;jettySize=auto;html=1;" edge="1" parent="1" source="lG9ZCC8ehY0QoWntL6ON-10">
          <mxGeometry relative="1" as="geometry">
            <mxPoint x="520" y="410" as="targetPoint" />
          </mxGeometry>
        </mxCell>
        <mxCell id="lG9ZCC8ehY0QoWntL6ON-13" style="edgeStyle=orthogonalEdgeStyle;rounded=0;orthogonalLoop=1;jettySize=auto;html=1;" edge="1" parent="1">
          <mxGeometry relative="1" as="geometry">
            <mxPoint x="611" y="465" as="sourcePoint" />
            <mxPoint x="650" y="410" as="targetPoint" />
            <Array as="points">
              <mxPoint x="650" y="465" />
            </Array>
          </mxGeometry>
        </mxCell>
        <mxCell id="lG9ZCC8ehY0QoWntL6ON-10" value="rdf_extractor.py" style="verticalLabelPosition=bottom;html=1;verticalAlign=top;align=center;strokeColor=none;fillColor=#00BEF2;shape=mxgraph.azure.script_file;pointerEvents=1;" vertex="1" parent="1">
          <mxGeometry x="562.5" y="440" width="47.5" height="50" as="geometry" />
        </mxCell>
        <mxCell id="lG9ZCC8ehY0QoWntL6ON-15" value="&lt;ol&gt;&lt;li&gt;Using Textract, extracts all text from document&lt;br&gt;&lt;/li&gt;&lt;li&gt;Iterates over chunks of documents, injecting chunk and ontology into &lt;b&gt;rdf-extraction-prompt.txt, &lt;/b&gt;which queries LLM for RDF representation of chunk document&lt;br&gt;&lt;/li&gt;&lt;li&gt;Combines generated graphs into RDF graphs&lt;br&gt;&lt;/li&gt;&lt;/ol&gt;" style="text;strokeColor=none;fillColor=none;html=1;whiteSpace=wrap;verticalAlign=middle;overflow=hidden;" vertex="1" parent="1">
          <mxGeometry x="420" y="510" width="320" height="110" as="geometry" />
        </mxCell>
        <mxCell id="lG9ZCC8ehY0QoWntL6ON-21" style="edgeStyle=orthogonalEdgeStyle;rounded=0;orthogonalLoop=1;jettySize=auto;html=1;" edge="1" parent="1" source="lG9ZCC8ehY0QoWntL6ON-16" target="lG9ZCC8ehY0QoWntL6ON-19">
          <mxGeometry relative="1" as="geometry" />
        </mxCell>
        <mxCell id="lG9ZCC8ehY0QoWntL6ON-16" value="rdf-to-cypher-neptune.py" style="verticalLabelPosition=bottom;html=1;verticalAlign=top;align=center;strokeColor=none;fillColor=#00BEF2;shape=mxgraph.azure.script_file;pointerEvents=1;" vertex="1" parent="1">
          <mxGeometry x="876.25" y="440" width="47.5" height="50" as="geometry" />
        </mxCell>
        <mxCell id="lG9ZCC8ehY0QoWntL6ON-17" value="&lt;ol&gt;&lt;li&gt;Queries Neptune graph for schema. Injects that and combined RDF graph into &lt;b&gt;cypher-merge-rdf-template.txt&lt;/b&gt; to generate cypher query to load RDF data into Neptune database&lt;br&gt;&lt;/li&gt;&lt;li&gt;Executes open cypher query&lt;br&gt;&lt;/li&gt;&lt;/ol&gt;" style="text;strokeColor=none;fillColor=none;html=1;whiteSpace=wrap;verticalAlign=middle;overflow=hidden;" vertex="1" parent="1">
          <mxGeometry x="740" y="510" width="320" height="110" as="geometry" />
        </mxCell>
        <mxCell id="lG9ZCC8ehY0QoWntL6ON-18" style="edgeStyle=orthogonalEdgeStyle;rounded=0;orthogonalLoop=1;jettySize=auto;html=1;exitX=0.96;exitY=0.96;exitDx=0;exitDy=0;exitPerimeter=0;entryX=0;entryY=0.5;entryDx=0;entryDy=0;entryPerimeter=0;" edge="1" parent="1" source="lG9ZCC8ehY0QoWntL6ON-10" target="lG9ZCC8ehY0QoWntL6ON-16">
          <mxGeometry relative="1" as="geometry" />
        </mxCell>
        <mxCell id="lG9ZCC8ehY0QoWntL6ON-19" value="Amazon Neptune" style="sketch=0;outlineConnect=0;fontColor=#232F3E;gradientColor=none;strokeColor=#ffffff;fillColor=#232F3E;dashed=0;verticalLabelPosition=middle;verticalAlign=bottom;align=center;html=1;whiteSpace=wrap;fontSize=10;fontStyle=1;spacing=3;shape=mxgraph.aws4.productIcon;prIcon=mxgraph.aws4.neptune;" vertex="1" parent="1">
          <mxGeometry x="1140" y="410" width="80" height="110" as="geometry" />
        </mxCell>
        <mxCell id="lG9ZCC8ehY0QoWntL6ON-20" value="Neptune database now contains data from document" style="text;html=1;align=center;verticalAlign=middle;whiteSpace=wrap;rounded=0;" vertex="1" parent="1">
          <mxGeometry x="1115" y="530" width="130" height="30" as="geometry" />
        </mxCell>
      </root>
    </mxGraphModel>
  </diagram>
</mxfile>
